<?xml version="1.0" standalone="no"?>
<svg xmlns="http://www.w3.org/2000/svg" xmlns:xlink="http://www.w3.org/1999/xlink" width="734pt" height="1087pt" viewBox="0.00 0.00 734.11 1087.00">
<g id="graph0" class="graph" transform="translate(-49.11328125,1076.7513732910156) scale(1)" data-name="G">

<polygon fill="#2e3e56" stroke="none" points="-4,4 -4,-1083 730.11,-1083 730.11,4 -4,4" style=""/>
<g id="clust1" class="cluster" data-name="clusterIVestingData">

<path fill="#445773" stroke="#445773" d="M20.94,-147C20.94,-147 163.76,-147 163.76,-147 169.76,-147 175.76,-153 175.76,-159 175.76,-159 175.76,-212 175.76,-212 175.76,-218 169.76,-224 163.76,-224 163.76,-224 20.94,-224 20.94,-224 14.94,-224 8.94,-218 8.94,-212 8.94,-212 8.94,-159 8.94,-159 8.94,-153 14.94,-147 20.94,-147" style=""/>
<text text-anchor="middle" x="92.35" y="-207.4" font-family="Times,serif" font-size="14.00" fill="#f0f0f0" style="">IVestingData  (iface)</text>
</g>
<g id="clust2" class="cluster" data-name="clusterVestingData">

<path fill="#445773" stroke="#445773" d="M208.71,-8C208.71,-8 413.73,-8 413.73,-8 419.73,-8 425.73,-14 425.73,-20 425.73,-20 425.73,-181 425.73,-181 425.73,-187 419.73,-193 413.73,-193 413.73,-193 208.71,-193 208.71,-193 202.71,-193 196.71,-187 196.71,-181 196.71,-181 196.71,-20 196.71,-20 196.71,-14 202.71,-8 208.71,-8" style=""/>
<text text-anchor="middle" x="311.22" y="-176.4" font-family="Times,serif" font-size="14.00" fill="#f0f0f0" style="">VestingData</text>
</g>
<g id="clust3" class="cluster" data-name="clusterEvmosVesting">

<path fill="#445773" stroke="#445773" d="M20,-371C20,-371 594.11,-371 594.11,-371 600.11,-371 606.11,-377 606.11,-383 606.11,-383 606.11,-922 606.11,-922 606.11,-928 600.11,-934 594.11,-934 594.11,-934 20,-934 20,-934 14,-934 8,-928 8,-922 8,-922 8,-383 8,-383 8,-377 14,-371 20,-371" style=""/>
<text text-anchor="middle" x="307.05" y="-917.4" font-family="Times,serif" font-size="14.00" fill="#f0f0f0" style="">EvmosVesting</text>
</g>
<g id="clust4" class="cluster" data-name="clustertotalFunding">

<path fill="#3b4b63" stroke="#e8726d" stroke-dasharray="5,2" d="M494.92,-62C494.92,-62 557.92,-62 557.92,-62 563.92,-62 569.92,-68 569.92,-74 569.92,-74 569.92,-127 569.92,-127 569.92,-133 563.92,-139 557.92,-139 557.92,-139 494.92,-139 494.92,-139 488.92,-139 482.92,-133 482.92,-127 482.92,-127 482.92,-74 482.92,-74 482.92,-68 488.92,-62 494.92,-62" style=""/>
<text text-anchor="middle" x="526.42" y="-122.4" font-family="Times,serif" font-size="14.00" fill="#f0f0f0" style="">totalFunding</text>
</g>
<g id="clust5" class="cluster" data-name="clusterstart">

<path fill="#3b4b63" stroke="#e8726d" stroke-dasharray="5,2" d="M288.22,-286C288.22,-286 334.22,-286 334.22,-286 340.22,-286 346.22,-292 346.22,-298 346.22,-298 346.22,-351 346.22,-351 346.22,-357 340.22,-363 334.22,-363 334.22,-363 288.22,-363 288.22,-363 282.22,-363 276.22,-357 276.22,-351 276.22,-351 276.22,-298 276.22,-298 276.22,-292 282.22,-286 288.22,-286" style=""/>
<text text-anchor="middle" x="311.22" y="-346.4" font-family="Times,serif" font-size="14.00" fill="#f0f0f0" style="">start</text>
</g>
<g id="clust6" class="cluster" data-name="cluster_released">

<path fill="#3b4b63" stroke="#e8726d" stroke-dasharray="5,2" d="M288.22,-201C288.22,-201 334.22,-201 334.22,-201 340.22,-201 346.22,-207 346.22,-213 346.22,-213 346.22,-266 346.22,-266 346.22,-272 340.22,-278 334.22,-278 334.22,-278 288.22,-278 288.22,-278 282.22,-278 276.22,-272 276.22,-266 276.22,-266 276.22,-213 276.22,-213 276.22,-207 282.22,-201 288.22,-201" style=""/>
<text text-anchor="middle" x="311.22" y="-261.4" font-family="Times,serif" font-size="14.00" fill="#f0f0f0" style="">_released</text>
</g>
<g id="clust7" class="cluster" data-name="clustercurrentBalance">

<path fill="#3b4b63" stroke="#e8726d" stroke-dasharray="5,2" d="M638.11,-726C638.11,-726 714.11,-726 714.11,-726 720.11,-726 726.11,-732 726.11,-738 726.11,-738 726.11,-791 726.11,-791 726.11,-797 720.11,-803 714.11,-803 714.11,-803 638.11,-803 638.11,-803 632.11,-803 626.11,-797 626.11,-791 626.11,-791 626.11,-738 626.11,-738 626.11,-732 632.11,-726 638.11,-726" style=""/>
<text text-anchor="middle" x="676.11" y="-786.4" font-family="Times,serif" font-size="14.00" fill="#f0f0f0" style="">currentBalance</text>
</g>
<g id="clust8" class="cluster" data-name="cluster_start">

<path fill="#3b4b63" stroke="#e8726d" stroke-dasharray="5,2" d="M653.11,-641C653.11,-641 699.11,-641 699.11,-641 705.11,-641 711.11,-647 711.11,-653 711.11,-653 711.11,-706 711.11,-706 711.11,-712 705.11,-718 699.11,-718 699.11,-718 653.11,-718 653.11,-718 647.11,-718 641.11,-712 641.11,-706 641.11,-706 641.11,-653 641.11,-653 641.11,-647 647.11,-641 653.11,-641" style=""/>
<text text-anchor="middle" x="676.11" y="-701.4" font-family="Times,serif" font-size="14.00" fill="#f0f0f0" style="">_start</text>
</g>
<g id="clust9" class="cluster" data-name="clustertotalBalance">

<path fill="#3b4b63" stroke="#e8726d" stroke-dasharray="5,2" d="M646.11,-556C646.11,-556 707.11,-556 707.11,-556 713.11,-556 719.11,-562 719.11,-568 719.11,-568 719.11,-621 719.11,-621 719.11,-627 713.11,-633 707.11,-633 707.11,-633 646.11,-633 646.11,-633 640.11,-633 634.11,-627 634.11,-621 634.11,-621 634.11,-568 634.11,-568 634.11,-562 640.11,-556 646.11,-556" style=""/>
<text text-anchor="middle" x="676.61" y="-616.4" font-family="Times,serif" font-size="14.00" fill="#f0f0f0" style="">totalBalance</text>
</g>
<g id="clust10" class="cluster" data-name="cluster_01">

<polygon fill="#2e3e56" stroke="black" points="19.35,-942 19.35,-1071 346.22,-1071 346.22,-942 19.35,-942" style=""/>
<text text-anchor="middle" x="182.79" y="-1054.4" font-family="Times,serif" font-size="14.00" style="">Legend</text>
</g>
<!-- IVestingData.getTotalFunding -->
<g id="node1" class="node" pointer-events="visible" data-name="IVestingData.getTotalFunding">

<ellipse fill="#ffbdb9" stroke="#ffbdb9" stroke-width="3" cx="92.35" cy="-173" rx="75.32" ry="18" style=""/>
<text text-anchor="middle" x="92.35" y="-168.8" font-family="Times,serif" font-size="14.00" style="">getTotalFunding</text>
</g>
<!-- VestingData.getTotalFunding -->
<g id="node2" class="node" pointer-events="visible" data-name="VestingData.getTotalFunding">

<ellipse fill="#ff9797" stroke="#ff9797" stroke-width="3" cx="311.22" cy="-142" rx="75.32" ry="18" style=""/>
<text text-anchor="middle" x="311.22" y="-137.8" font-family="Times,serif" font-size="14.00" style="">getTotalFunding</text>
</g>
<!-- VestingData.increaseTotalFundingBy -->
<g id="node3" class="node" pointer-events="visible" data-name="VestingData.increaseTotalFundingBy">

<ellipse fill="#f2c383" stroke="#f2c383" stroke-width="3" cx="311.22" cy="-88" rx="106.52" ry="18" style=""/>
<text text-anchor="middle" x="311.22" y="-83.8" font-family="Times,serif" font-size="14.00" style="">increaseTotalFundingBy</text>
</g>
<!-- totalFunding.add -->
<g id="node18" class="node" pointer-events="visible" data-name="totalFunding.add">

<ellipse fill="#edad56" stroke="#edad56" stroke-width="3" cx="525.92" cy="-88" rx="27" ry="18" style=""/>
<text text-anchor="middle" x="525.92" y="-83.8" font-family="Times,serif" font-size="14.00" style="">add</text>
</g>
<!-- VestingData.increaseTotalFundingBy&#45;&gt;totalFunding.add -->
<g id="edge1" class="edge" data-name="VestingData.increaseTotalFundingBy-&gt;totalFunding.add">

<path fill="none" stroke="white" stroke-width="2" d="M419.19,-88C442.67,-88 466.1,-88 484.92,-88" style=""/>
<polygon fill="white" stroke="white" stroke-width="2" points="484.72,-91.5 494.72,-88 484.72,-84.5 484.72,-91.5" style=""/>
</g>
<!-- VestingData.setTotalFunding -->
<g id="node4" class="node" pointer-events="visible" data-name="VestingData.setTotalFunding">

<ellipse fill="#f2c383" stroke="#f2c383" stroke-width="3" cx="311.22" cy="-34" rx="74.18" ry="18" style=""/>
<text text-anchor="middle" x="311.22" y="-29.8" font-family="Times,serif" font-size="14.00" style="">setTotalFunding</text>
</g>
<!-- EvmosVesting.&lt;Constructor&gt; -->
<g id="node5" class="node" pointer-events="visible" data-name="EvmosVesting.&lt;Constructor&gt;">

<ellipse fill="#ff9797" stroke="#ff9797" stroke-width="3" cx="92.35" cy="-451" rx="67.55" ry="18" style=""/>
<text text-anchor="middle" x="92.35" y="-446.8" font-family="Times,serif" font-size="14.00" style="">&lt;Constructor&gt;</text>
</g>
<!-- start.add -->
<g id="node19" class="node" pointer-events="visible" data-name="start.add">

<ellipse fill="#edad56" stroke="#edad56" stroke-width="3" cx="311.22" cy="-312" rx="27" ry="18" style=""/>
<text text-anchor="middle" x="311.22" y="-307.8" font-family="Times,serif" font-size="14.00" style="">add</text>
</g>
<!-- EvmosVesting.&lt;Constructor&gt;&#45;&gt;start.add -->
<g id="edge2" class="edge" data-name="EvmosVesting.&lt;Constructor&gt;-&gt;start.add">

<path fill="none" stroke="white" stroke-width="2" d="M149.49,-440.21C159.13,-436.35 168.4,-431.11 175.76,-424 195.18,-405.26 178.59,-387.01 196.71,-367 216.86,-344.75 247.98,-330.55 272.55,-322.17" style=""/>
<polygon fill="white" stroke="white" stroke-width="2" points="273.35,-325.59 281.82,-319.22 271.23,-318.92 273.35,-325.59" style=""/>
</g>
<!-- EvmosVesting.beneficiary -->
<g id="node6" class="node" pointer-events="visible" data-name="EvmosVesting.beneficiary">

<ellipse fill="#ff9797" stroke="#ff9797" stroke-width="3" cx="92.35" cy="-829" rx="54.43" ry="18" style=""/>
<text text-anchor="middle" x="92.35" y="-824.8" font-family="Times,serif" font-size="14.00" style="">beneficiary</text>
</g>
<!-- EvmosVesting.start -->
<g id="node7" class="node" pointer-events="visible" data-name="EvmosVesting.start">

<ellipse fill="#ff9797" stroke="#ff9797" stroke-width="3" cx="92.35" cy="-775" rx="27.83" ry="18" style=""/>
<text text-anchor="middle" x="92.35" y="-770.8" font-family="Times,serif" font-size="14.00" style="">start</text>
</g>
<!-- EvmosVesting.duration -->
<g id="node8" class="node" pointer-events="visible" data-name="EvmosVesting.duration">

<ellipse fill="#ff9797" stroke="#ff9797" stroke-width="3" cx="92.35" cy="-721" rx="43.44" ry="18" style=""/>
<text text-anchor="middle" x="92.35" y="-716.8" font-family="Times,serif" font-size="14.00" style="">duration</text>
</g>
<!-- EvmosVesting.revocable -->
<g id="node9" class="node" pointer-events="visible" data-name="EvmosVesting.revocable">

<ellipse fill="#ff9797" stroke="#ff9797" stroke-width="3" cx="92.35" cy="-667" rx="48.63" ry="18" style=""/>
<text text-anchor="middle" x="92.35" y="-662.8" font-family="Times,serif" font-size="14.00" style="">revocable</text>
</g>
<!-- EvmosVesting.released -->
<g id="node10" class="node" pointer-events="visible" data-name="EvmosVesting.released">

<ellipse fill="#ff9797" stroke="#ff9797" stroke-width="3" cx="92.35" cy="-613" rx="42.83" ry="18" style=""/>
<text text-anchor="middle" x="92.35" y="-608.8" font-family="Times,serif" font-size="14.00" style="">released</text>
</g>
<!-- EvmosVesting.revoked -->
<g id="node11" class="node" pointer-events="visible" data-name="EvmosVesting.revoked">

<ellipse fill="#ff9797" stroke="#ff9797" stroke-width="3" cx="92.35" cy="-559" rx="42.28" ry="18" style=""/>
<text text-anchor="middle" x="92.35" y="-554.8" font-family="Times,serif" font-size="14.00" style="">revoked</text>
</g>
<!-- EvmosVesting.release -->
<g id="node12" class="node" pointer-events="visible" data-name="EvmosVesting.release">

<ellipse fill="#ffbdb9" stroke="#ffbdb9" stroke-width="3" cx="92.35" cy="-505" rx="37.68" ry="18" style=""/>
<text text-anchor="middle" x="92.35" y="-500.8" font-family="Times,serif" font-size="14.00" style="">release</text>
</g>
<!-- EvmosVesting._releasableAmount -->
<g id="node14" class="node" pointer-events="visible" data-name="EvmosVesting._releasableAmount">

<ellipse fill="#edad56" stroke="#edad56" stroke-width="3" cx="311.22" cy="-667" rx="86.24" ry="18" style=""/>
<text text-anchor="middle" x="311.22" y="-662.8" font-family="Times,serif" font-size="14.00" style="">_releasableAmount</text>
</g>
<!-- EvmosVesting.release&#45;&gt;EvmosVesting._releasableAmount -->
<g id="edge3" class="edge" data-name="EvmosVesting.release-&gt;EvmosVesting._releasableAmount">

<path fill="none" stroke="#1bc6a6" stroke-width="2" d="M128.21,-512.51C143.52,-516.77 161.28,-523.08 175.76,-532 221.87,-560.4 263.99,-607.68 288.37,-638.08" style=""/>
<polygon fill="#1bc6a6" stroke="#1bc6a6" stroke-width="2" points="285.42,-640 294.36,-645.69 290.92,-635.67 285.42,-640" style=""/>
</g>
<!-- _released.add -->
<g id="node20" class="node" pointer-events="visible" data-name="_released.add">

<ellipse fill="#edad56" stroke="#edad56" stroke-width="3" cx="311.22" cy="-227" rx="27" ry="18" style=""/>
<text text-anchor="middle" x="311.22" y="-222.8" font-family="Times,serif" font-size="14.00" style="">add</text>
</g>
<!-- EvmosVesting.release&#45;&gt;_released.add -->
<g id="edge4" class="edge" data-name="EvmosVesting.release-&gt;_released.add">

<path fill="none" stroke="white" stroke-width="2" d="M130.9,-501.7C147.14,-498.27 164.87,-491.46 175.76,-478 230.87,-409.9 146.3,-353.65 196.71,-282 214.17,-257.18 245.99,-243.11 271.51,-235.43" style=""/>
<polygon fill="white" stroke="white" stroke-width="2" points="272.16,-238.88 280.88,-232.86 270.31,-232.13 272.16,-238.88" style=""/>
</g>
<!-- EvmosVesting.revoke -->
<g id="node13" class="node" pointer-events="visible" data-name="EvmosVesting.revoke">

<ellipse fill="#ffbdb9" stroke="#ffbdb9" stroke-width="3" cx="92.35" cy="-883" rx="37.12" ry="18" style=""/>
<text text-anchor="middle" x="92.35" y="-878.8" font-family="Times,serif" font-size="14.00" style="">revoke</text>
</g>
<!-- EvmosVesting.revoke&#45;&gt;EvmosVesting._releasableAmount -->
<g id="edge5" class="edge" data-name="EvmosVesting.revoke-&gt;EvmosVesting._releasableAmount">

<path fill="none" stroke="#1bc6a6" stroke-width="2" d="M128.53,-876.69C144.09,-872.64 161.94,-866.17 175.76,-856 233.2,-813.72 275.51,-739.49 296.14,-697.75" style=""/>
<polygon fill="#1bc6a6" stroke="#1bc6a6" stroke-width="2" points="299.23,-699.41 300.41,-688.88 292.92,-696.37 299.23,-699.41" style=""/>
</g>
<!-- EvmosVesting.owner -->
<g id="node17" class="node" pointer-events="visible" data-name="EvmosVesting.owner">

<ellipse fill="#edad56" stroke="#edad56" stroke-width="3" cx="311.22" cy="-883" rx="35.34" ry="18" style=""/>
<text text-anchor="middle" x="311.22" y="-878.8" font-family="Times,serif" font-size="14.00" style="">owner</text>
</g>
<!-- EvmosVesting.revoke&#45;&gt;EvmosVesting.owner -->
<g id="edge7" class="edge" data-name="EvmosVesting.revoke-&gt;EvmosVesting.owner">

<path fill="none" stroke="#1bc6a6" stroke-width="2" d="M130.63,-883C166.86,-883 222.07,-883 261.71,-883" style=""/>
<polygon fill="#1bc6a6" stroke="#1bc6a6" stroke-width="2" points="261.48,-886.5 271.48,-883 261.48,-879.5 261.48,-886.5" style=""/>
</g>
<!-- EvmosVesting.revoke&#45;&gt;_released.add -->
<g id="edge6" class="edge" data-name="EvmosVesting.revoke-&gt;_released.add">

<path fill="none" stroke="white" stroke-width="2" d="M130.49,-880.21C147.04,-876.92 165.17,-870.07 175.76,-856 214.15,-805.01 161.84,-335.45 196.71,-282 213.39,-256.43 245.58,-242.39 271.43,-234.92" style=""/>
<polygon fill="white" stroke="white" stroke-width="2" points="272.16,-238.34 280.95,-232.43 270.39,-231.57 272.16,-238.34" style=""/>
</g>
<!-- EvmosVesting._vestedAmount -->
<g id="node15" class="node" pointer-events="visible" data-name="EvmosVesting._vestedAmount">

<ellipse fill="#edad56" stroke="#edad56" stroke-width="3" cx="525.92" cy="-667" rx="72.38" ry="18" style=""/>
<text text-anchor="middle" x="525.92" y="-662.8" font-family="Times,serif" font-size="14.00" style="">_vestedAmount</text>
</g>
<!-- EvmosVesting._releasableAmount&#45;&gt;EvmosVesting._vestedAmount -->
<g id="edge8" class="edge" data-name="EvmosVesting._releasableAmount-&gt;EvmosVesting._vestedAmount">

<path fill="none" stroke="#1bc6a6" stroke-width="2" d="M398.73,-667C412.15,-667 426.01,-667 439.41,-667" style=""/>
<polygon fill="#1bc6a6" stroke="#1bc6a6" stroke-width="2" points="439.06,-670.5 449.06,-667 439.06,-663.5 439.06,-670.5" style=""/>
</g>
<!-- currentBalance.add -->
<g id="node21" class="node" pointer-events="visible" data-name="currentBalance.add">

<ellipse fill="#edad56" stroke="#edad56" stroke-width="3" cx="676.11" cy="-752" rx="27" ry="18" style=""/>
<text text-anchor="middle" x="676.11" y="-747.8" font-family="Times,serif" font-size="14.00" style="">add</text>
</g>
<!-- EvmosVesting._vestedAmount&#45;&gt;currentBalance.add -->
<g id="edge9" class="edge" data-name="EvmosVesting._vestedAmount-&gt;currentBalance.add">

<path fill="none" stroke="white" stroke-width="2" d="M557.62,-684.61C582.51,-698.88 617.47,-718.94 642.78,-733.46" style=""/>
<polygon fill="white" stroke="white" stroke-width="2" points="640.96,-736.45 651.37,-738.39 644.44,-730.37 640.96,-736.45" style=""/>
</g>
<!-- _start.add -->
<g id="node22" class="node" pointer-events="visible" data-name="_start.add">

<ellipse fill="#edad56" stroke="#edad56" stroke-width="3" cx="676.11" cy="-667" rx="27" ry="18" style=""/>
<text text-anchor="middle" x="676.11" y="-662.8" font-family="Times,serif" font-size="14.00" style="">add</text>
</g>
<!-- EvmosVesting._vestedAmount&#45;&gt;_start.add -->
<g id="edge10" class="edge" data-name="EvmosVesting._vestedAmount-&gt;_start.add">

<path fill="none" stroke="white" stroke-width="2" d="M599.71,-667C611.75,-667 623.84,-667 634.7,-667" style=""/>
<polygon fill="white" stroke="white" stroke-width="2" points="634.68,-670.5 644.68,-667 634.68,-663.5 634.68,-670.5" style=""/>
</g>
<!-- totalBalance.mul -->
<g id="node23" class="node" pointer-events="visible" data-name="totalBalance.mul">

<ellipse fill="#edad56" stroke="#edad56" stroke-width="3" cx="676.11" cy="-582" rx="27" ry="18" style=""/>
<text text-anchor="middle" x="676.11" y="-577.8" font-family="Times,serif" font-size="14.00" style="">mul</text>
</g>
<!-- EvmosVesting._vestedAmount&#45;&gt;totalBalance.mul -->
<g id="edge11" class="edge" data-name="EvmosVesting._vestedAmount-&gt;totalBalance.mul">

<path fill="none" stroke="white" stroke-width="2" d="M557.62,-649.39C582.51,-635.12 617.47,-615.06 642.78,-600.54" style=""/>
<polygon fill="white" stroke="white" stroke-width="2" points="644.44,-603.63 651.37,-595.61 640.96,-597.55 644.44,-603.63" style=""/>
</g>
<!-- EvmosVesting.&lt;Receive Ether&gt; -->
<g id="node16" class="node" pointer-events="visible" data-name="EvmosVesting.&lt;Receive Ether&gt;">

<ellipse fill="#ffbdb9" stroke="brown" stroke-width="3" cx="92.35" cy="-397" rx="76.21" ry="18" style=""/>
<text text-anchor="middle" x="92.35" y="-392.8" font-family="Times,serif" font-size="14.00" style="">&lt;Receive Ether&gt;</text>
</g>
<!-- EvmosVesting.&lt;Receive Ether&gt;&#45;&gt;VestingData.increaseTotalFundingBy -->
<g id="edge12" class="edge" data-name="EvmosVesting.&lt;Receive Ether&gt;-&gt;VestingData.increaseTotalFundingBy">

<path fill="none" stroke="#1bc6a6" stroke-width="2" d="M104.78,-377.95C122.61,-347.39 156.96,-285.04 175.76,-228 191.76,-179.49 161.51,-152.01 196.71,-115 200.47,-111.04 204.71,-107.61 209.28,-104.65" style=""/>
<polygon fill="#1bc6a6" stroke="#1bc6a6" stroke-width="2" points="210.69,-107.86 217.79,-100 207.34,-101.72 210.69,-107.86" style=""/>
</g>
<!-- key -->
<g id="node24" class="node" pointer-events="visible" data-name="key">

<polygon fill="#edad56" stroke="none" stroke-width="3" points="157.35,-1038 27.35,-1038 27.35,-950 157.35,-950 157.35,-1038" style=""/>
<text text-anchor="start" x="76.99" y="-1019.4" font-family="Times,serif" font-size="14.00" style="">Internal Call</text>
<text text-anchor="start" x="73.1" y="-999.4" font-family="Times,serif" font-size="14.00" style="">External Call</text>
<text text-anchor="start" x="50.56" y="-979.4" font-family="Times,serif" font-size="14.00" style="">Defined Contract</text>
<text text-anchor="start" x="36.95" y="-959.4" font-family="Times,serif" font-size="14.00" style="">Undefined Contract</text>
</g>
<!-- key2 -->
<g id="node25" class="node" pointer-events="visible" data-name="key2">

<polygon fill="#edad56" stroke="none" stroke-width="3" points="338.22,-1038 284.22,-1038 284.22,-950 338.22,-950 338.22,-1038" style=""/>
<text text-anchor="start" x="301.22" y="-1019.4" font-family="Times,serif" font-size="14.00" style="">   </text>
<text text-anchor="start" x="301.22" y="-999.4" font-family="Times,serif" font-size="14.00" style="">   </text>
<polygon fill="#445773" stroke="none" points="299.22,-974 299.22,-994 324.22,-994 324.22,-974 299.22,-974" style=""/>
<text text-anchor="start" x="301.22" y="-979.4" font-family="Times,serif" font-size="14.00" style="">   </text>
<polygon fill="none" stroke="#e8726d" points="301.22,-956 301.22,-972 322.22,-972 322.22,-956 301.22,-956" style=""/>
</g>
<!-- key&#45;&gt;key2 -->
<g id="edge13" class="edge" data-name="key-&gt;key2">

<path fill="none" stroke="#1bc6a6" stroke-width="2" d="M150.35,-1024C211.58,-1024 230.02,-1024 285.4,-1024" style=""/>
<polygon fill="#1bc6a6" stroke="#1bc6a6" stroke-width="2" points="285.19,-1027.5 295.19,-1024 285.19,-1020.5 285.19,-1027.5" style=""/>
</g>
<!-- key&#45;&gt;key2 -->
<g id="edge14" class="edge" data-name="key-&gt;key2">

<path fill="none" stroke="white" stroke-width="2" d="M150.35,-1004C211.58,-1004 230.02,-1004 285.4,-1004" style=""/>
<polygon fill="white" stroke="white" stroke-width="2" points="285.19,-1007.5 295.19,-1004 285.19,-1000.5 285.19,-1007.5" style=""/>
</g>
</g>
</svg>